
<svg width="180" height="60" viewBox="0 0 319.4 83.001" xmlns="http://www.w3.org/2000/svg">
	<g id="svgGroup" font-size="9pt" stroke="none" style="fill: rgba(255,255,255,0.1)"><path d="M 62.6 76.9 L 62.6 6.3 L 53.7 5.4 L 53.7 1.7 L 68.5 0 L 68.7 0 L 70.6 1.3 L 70.6 25.1 L 70.4 33.4 Q 72.725 31.293 76.423 29.292 A 55.187 55.187 0 0 1 79.4 27.8 A 29.791 29.791 0 0 1 85.506 25.693 A 24.338 24.338 0 0 1 90.8 25.1 Q 97.1 25.1 100.6 27.5 A 11.282 11.282 0 0 1 104.155 31.535 A 16.408 16.408 0 0 1 105.5 34.95 Q 106.9 40 106.9 48.6 L 106.9 76.8 L 114.2 77.6 L 114.2 81.9 L 91.8 81.9 L 91.8 77.6 L 98.8 76.8 L 98.8 48.5 Q 98.8 42.565 98.069 39.038 A 20.034 20.034 0 0 0 97.95 38.5 A 11.058 11.058 0 0 0 97.034 35.962 A 7.956 7.956 0 0 0 94.6 33.1 A 8.288 8.288 0 0 0 92.243 31.951 Q 90.188 31.3 87.3 31.3 Q 83.3 31.3 78.7 33.25 A 39.18 39.18 0 0 0 73.38 35.98 A 32.681 32.681 0 0 0 70.6 37.9 L 70.6 76.8 L 78 77.6 L 78 81.9 L 56.3 81.9 L 56.3 77.6 L 62.6 76.9 Z M 0 78.4 L 0.8 60.6 L 6 60.6 L 7.5 73.7 A 9.343 9.343 0 0 0 9.072 74.878 Q 10.713 75.878 13.203 76.689 A 31.952 31.952 0 0 0 13.55 76.8 A 28.563 28.563 0 0 0 19.757 77.985 A 34.572 34.572 0 0 0 22.6 78.1 A 28.486 28.486 0 0 0 27.291 77.739 Q 29.816 77.316 31.834 76.401 A 13.156 13.156 0 0 0 35 74.4 A 12.12 12.12 0 0 0 39.142 66.586 A 17.447 17.447 0 0 0 39.3 64.2 A 13 13 0 0 0 38.846 60.689 A 10.332 10.332 0 0 0 37.05 57.1 A 18.342 18.342 0 0 0 32.843 53.187 A 22.049 22.049 0 0 0 31.25 52.2 Q 27.862 50.291 21.97 47.745 A 207.617 207.617 0 0 0 21.4 47.5 Q 16.652 45.488 13.038 43.477 A 56.861 56.861 0 0 1 11.35 42.5 A 24.296 24.296 0 0 1 5.094 37.035 A 28.453 28.453 0 0 1 4.1 35.75 A 16.094 16.094 0 0 1 1.128 27.929 A 20.704 20.704 0 0 1 1 25.6 Q 1 20.1 4 15.8 A 18.714 18.714 0 0 1 10.274 10.185 A 23.364 23.364 0 0 1 12.35 9.15 A 27.46 27.46 0 0 1 19.594 7.137 A 35.835 35.835 0 0 1 24.6 6.8 A 46.687 46.687 0 0 1 28.093 6.924 Q 29.889 7.059 31.471 7.341 A 27.539 27.539 0 0 1 32.05 7.45 Q 34.234 7.887 37.207 8.662 A 178.925 178.925 0 0 1 40.3 9.5 Q 43 10.3 43.5 10.4 L 42.9 26.8 L 37.9 26.8 L 36.1 14.4 A 5.022 5.022 0 0 0 35.304 13.872 Q 34.417 13.385 32.982 12.911 A 31.628 31.628 0 0 0 31.45 12.45 A 26.898 26.898 0 0 0 25.547 11.533 A 31.021 31.021 0 0 0 24.1 11.5 Q 16.7 11.5 12.8 14.55 A 9.84 9.84 0 0 0 9.192 20.539 A 15.212 15.212 0 0 0 8.9 23.6 Q 8.9 27.7 11 30.45 A 17.411 17.411 0 0 0 15.109 34.293 A 20.71 20.71 0 0 0 16.4 35.1 A 61.299 61.299 0 0 0 18.275 36.131 Q 21.425 37.8 26.6 40.2 Q 33.471 43.445 37.474 45.824 A 57.387 57.387 0 0 1 37.85 46.05 A 25.811 25.811 0 0 1 44.902 52.388 A 29.143 29.143 0 0 1 44.95 52.45 A 14.571 14.571 0 0 1 47.884 59.875 A 18.936 18.936 0 0 1 48 62 A 18.215 18.215 0 0 1 45.627 70.93 A 22.291 22.291 0 0 1 44.9 72.15 A 21.045 21.045 0 0 1 39.077 78.111 A 27.083 27.083 0 0 1 35.9 80 A 27.149 27.149 0 0 1 27.855 82.56 A 36.2 36.2 0 0 1 22.1 83 A 49.438 49.438 0 0 1 17.867 82.828 Q 15.294 82.606 13.1 82.1 A 93.103 93.103 0 0 1 10.006 81.327 Q 7.288 80.6 4.1 79.6 Q 0.7 78.5 0 78.4 Z M 306 78.6 L 306 74.7 Q 302.3 78 297.3 80.5 A 24.078 24.078 0 0 1 291.675 82.521 A 20.419 20.419 0 0 1 287.3 83 A 25.487 25.487 0 0 1 282.597 82.597 Q 280.028 82.113 278.056 81.051 A 11.268 11.268 0 0 1 274.35 77.9 Q 270.5 72.8 270.5 61.3 L 270.5 31.9 L 264.6 30.2 L 264.6 26.5 L 276.7 25.2 L 276.8 25.2 L 278.6 26.4 L 278.6 60.1 Q 278.6 65.942 279.374 69.419 A 18.624 18.624 0 0 0 279.5 69.95 Q 280.4 73.5 282.8 75.2 Q 285.2 76.9 289.8 76.9 Q 294.2 76.9 298.2 75 A 31.107 31.107 0 0 0 302.562 72.497 A 25.701 25.701 0 0 0 305.1 70.5 L 305.1 31.9 L 297.5 30.2 L 297.5 26.5 L 310.8 25.2 L 310.9 25.2 L 313.2 26.4 L 313.2 77.5 L 319.4 77.5 L 319.3 81.3 A 6.018 6.018 0 0 0 319.046 81.359 Q 318.473 81.501 317.05 81.911 A 237.835 237.835 0 0 0 316.4 82.1 A 17.102 17.102 0 0 1 313.51 82.666 A 22.588 22.588 0 0 1 311 82.8 A 11.922 11.922 0 0 1 309.657 82.73 Q 308.065 82.549 307.2 81.9 Q 306.31 81.232 306.08 79.74 A 7.512 7.512 0 0 1 306 78.6 Z M 122.4 81.9 L 122.4 77.7 L 130.4 77.1 L 130.4 33 L 122.7 31.3 L 122.7 26.8 L 135.4 25.2 L 135.6 25.2 L 137.5 26.8 L 137.5 28.4 L 137.3 36 L 137.5 36 Q 137.689 35.811 139.88 33.264 A 1228.051 1228.051 0 0 0 140.15 32.95 Q 142.6 30.1 147.45 27.5 A 22.378 22.378 0 0 1 152.77 25.434 A 18.808 18.808 0 0 1 157.2 24.9 A 11.35 11.35 0 0 1 159.351 25.098 A 9.925 9.925 0 0 1 160.2 25.3 L 160.2 34.1 A 1.479 1.479 0 0 0 159.951 33.955 Q 159.519 33.749 158.643 33.544 A 17.225 17.225 0 0 0 158.45 33.5 A 12.806 12.806 0 0 0 156.157 33.211 A 14.591 14.591 0 0 0 155.6 33.2 Q 150.693 33.2 147.046 34.46 A 17.725 17.725 0 0 0 145.9 34.9 Q 141.9 36.6 138.5 39.1 L 138.5 77 L 151.8 77.8 L 151.8 81.9 L 122.4 81.9 Z M 173.6 71.8 L 173.6 32.3 L 166 32.3 L 166 28.4 Q 170.774 27.35 171.719 26.846 A 1.353 1.353 0 0 0 171.8 26.8 Q 173.042 26.138 173.736 24.446 A 8.456 8.456 0 0 0 174 23.7 Q 174.6 22.2 175.6 18.3 A 440.236 440.236 0 0 0 176.069 16.456 Q 176.725 13.85 177.1 12.2 L 181.7 12.2 L 181.7 26.4 L 199.4 26.4 L 199.4 32.3 L 181.7 32.3 L 181.7 64.7 Q 181.7 70.5 182.1 72.85 Q 182.455 74.936 183.44 75.722 A 2.168 2.168 0 0 0 183.7 75.9 A 3.704 3.704 0 0 0 184.517 76.238 Q 185.744 76.6 187.9 76.6 A 24.939 24.939 0 0 0 190.773 76.424 Q 192.26 76.251 193.895 75.909 A 42.187 42.187 0 0 0 194.4 75.8 A 45.356 45.356 0 0 0 196.283 75.342 Q 198.094 74.857 199.288 74.338 A 10.547 10.547 0 0 0 199.8 74.1 L 201.1 77.9 Q 199.16 79.418 195.086 80.83 A 52.718 52.718 0 0 1 193.5 81.35 A 44.002 44.002 0 0 1 189.722 82.355 Q 187.857 82.758 186.205 82.909 A 20.935 20.935 0 0 1 184.3 83 A 18.327 18.327 0 0 1 181.312 82.773 Q 179.72 82.509 178.453 81.94 A 8.128 8.128 0 0 1 176.3 80.55 A 6.866 6.866 0 0 1 174.616 78.079 Q 173.701 75.904 173.61 72.555 A 27.79 27.79 0 0 1 173.6 71.8 Z M 240.5 76.8 L 240.5 6.3 L 232 5.4 L 232 1.7 L 246.6 0 L 246.7 0 L 248.6 1.3 L 248.6 76.9 L 258 77.6 L 258 81.9 L 231.7 81.9 L 231.7 77.6 L 240.5 76.8 Z M 215 83 Q 212.7 83 211.1 81.45 Q 209.5 79.9 209.5 77.4 A 6.605 6.605 0 0 1 210.048 74.684 A 6.386 6.386 0 0 1 211.45 72.7 A 6.734 6.734 0 0 1 213.616 71.253 A 6.271 6.271 0 0 1 216 70.8 A 7.259 7.259 0 0 1 217.556 70.956 Q 218.571 71.179 219.319 71.72 A 4.098 4.098 0 0 1 220.05 72.4 A 5.67 5.67 0 0 1 221.326 75.319 A 7.633 7.633 0 0 1 221.4 76.4 A 6.794 6.794 0 0 1 220.91 79.012 A 6.367 6.367 0 0 1 219.5 81.1 A 6.465 6.465 0 0 1 217.285 82.582 A 6.201 6.201 0 0 1 215 83 Z" vector-effect="non-scaling-stroke"/></g>
</svg>